<svg width="312" height="24" viewBox="0 0 312 24" fill="none" xmlns="http://www.w3.org/2000/svg">
<path d="M139.984 13.032H139.152V7.64C139.152 6.872 138.528 6.248 137.76 6.248C137.28 6.248 136.848 6.504 136.608 6.888L132.544 13.032C132.464 13.176 132.4 13.336 132.4 13.528C132.4 14.04 132.816 14.44 133.312 14.44H137.552V16.28C137.552 16.712 137.92 17.08 138.368 17.08C138.8 17.08 139.152 16.712 139.152 16.28V14.44H139.984C140.368 14.44 140.704 14.12 140.704 13.736C140.704 13.352 140.368 13.032 139.984 13.032ZM134.064 13.032L137.552 7.784V13.032H134.064ZM142.933 18.904C143.637 18.28 144.101 17.432 144.101 16.504C144.101 15.656 143.573 15.176 142.981 15.176C142.437 15.176 142.005 15.608 142.005 16.152C142.005 16.68 142.373 17.064 142.869 17.064C142.965 17.064 143.061 17.048 143.109 17.032C143.045 17.432 142.741 17.896 142.357 18.28C142.277 18.36 142.229 18.456 142.229 18.584C142.229 18.84 142.405 19.016 142.645 19.016C142.757 19.016 142.853 18.984 142.933 18.904ZM145.658 11.672C145.658 14.312 146.874 17.192 149.834 17.192C152.794 17.192 154.01 14.312 154.01 11.672C154.01 9.032 152.794 6.168 149.834 6.168C146.874 6.168 145.658 9.032 145.658 11.672ZM152.378 11.672C152.378 13.752 151.722 15.768 149.834 15.768C147.946 15.768 147.29 13.752 147.29 11.672C147.29 9.592 147.946 7.592 149.834 7.592C151.722 7.592 152.378 9.592 152.378 11.672Z" fill="#757575"/>
<mask id="mask0" mask-type="alpha" maskUnits="userSpaceOnUse" x="0" y="0" width="24" height="24">
<g clip-path="url(#clip0)">
<path d="M12 17.27L18.18 21L16.54 13.97L22 9.24L14.81 8.63L12 2L9.19 8.63L2 9.24L7.46 13.97L5.82 21L12 17.27Z" fill="black"/>
</g>
</mask>
<g mask="url(#mask0)">
<rect width="24" height="24" fill="#FFD033"/>
</g>
<mask id="mask1" mask-type="alpha" maskUnits="userSpaceOnUse" x="24" y="0" width="24" height="24">
<g clip-path="url(#clip1)">
<path d="M36 17.27L42.18 21L40.54 13.97L46 9.24L38.81 8.63L36 2L33.19 8.63L26 9.24L31.46 13.97L29.82 21L36 17.27Z" fill="black"/>
</g>
</mask>
<g mask="url(#mask1)">
<rect x="24" width="24" height="24" fill="#FFD033"/>
</g>
<mask id="mask2" mask-type="alpha" maskUnits="userSpaceOnUse" x="48" y="0" width="24" height="24">
<g clip-path="url(#clip2)">
<path d="M60 17.27L66.18 21L64.54 13.97L70 9.24L62.81 8.63L60 2L57.19 8.63L50 9.24L55.46 13.97L53.82 21L60 17.27Z" fill="black"/>
</g>
</mask>
<g mask="url(#mask2)">
<rect x="48" width="24" height="24" fill="#FFD033"/>
</g>
<mask id="mask3" mask-type="alpha" maskUnits="userSpaceOnUse" x="72" y="0" width="24" height="24">
<g clip-path="url(#clip3)">
<path d="M84 17.27L90.18 21L88.54 13.97L94 9.24L86.81 8.63L84 2L81.19 8.63L74 9.24L79.46 13.97L77.82 21L84 17.27Z" fill="black"/>
</g>
</mask>
<g mask="url(#mask3)">
<rect x="72" width="24" height="24" fill="#FFD033"/>
</g>
<mask id="mask4" mask-type="alpha" maskUnits="userSpaceOnUse" x="96" y="0" width="24" height="24">
<g clip-path="url(#clip4)">
<path d="M118 9.24L110.81 8.62L108 2L105.19 8.63L98 9.24L103.46 13.97L101.82 21L108 17.27L114.18 21L112.55 13.97L118 9.24ZM108 15.4L104.24 17.67L105.24 13.39L101.92 10.51L106.3 10.13L108 6.1L109.71 10.14L114.09 10.52L110.77 13.4L111.77 17.68L108 15.4Z" fill="black"/>
</g>
</mask>
<g mask="url(#mask4)">
<rect x="96" width="24" height="24" fill="#FFD033"/>
</g>
<defs>
<clipPath id="clip0">
<rect width="24" height="24" fill="white"/>
</clipPath>
<clipPath id="clip1">
<rect width="24" height="24" fill="white" transform="translate(24)"/>
</clipPath>
<clipPath id="clip2">
<rect width="24" height="24" fill="white" transform="translate(48)"/>
</clipPath>
<clipPath id="clip3">
<rect width="24" height="24" fill="white" transform="translate(72)"/>
</clipPath>
<clipPath id="clip4">
<rect width="24" height="24" fill="white" transform="translate(96)"/>
</clipPath>
</defs>
</svg>
