<svg width="16" height="16" viewBox="0 0 16 16" xmlns="http://www.w3.org/2000/svg">
<mask id="mask0" mask-type="alpha" maskUnits="userSpaceOnUse" x="0" y="0" width="16" height="16">
<g clip-path="url(#clip0)">
<path d="M1.33333 13.3333H2.66667C3.03333 13.3333 3.33333 13.0333 3.33333 12.6667V6.66668C3.33333 6.30001 3.03333 6.00001 2.66667 6.00001H1.33333V13.3333ZM14.5533 8.58668C14.6267 8.42001 14.6667 8.24001 14.6667 8.05334V7.33334C14.6667 6.60001 14.0667 6.00001 13.3333 6.00001H9.66667L10.28 2.90001C10.3133 2.75334 10.2933 2.59334 10.2267 2.46001C10.0733 2.16001 9.88 1.88668 9.64 1.64668L9.33333 1.33334L5.06 5.60668C4.80667 5.86001 4.66667 6.20001 4.66667 6.55334V11.78C4.66667 12.6333 5.36667 13.3333 6.22667 13.3333H11.6333C12.1 13.3333 12.54 13.0867 12.78 12.6867L14.5533 8.58668Z"/>
</g>
</mask>
<g mask="url(#mask0)">
<rect width="16" height="16" />
</g>
<defs>
<clipPath id="clip0">
<rect width="16" height="16" />
</clipPath>
</defs>
</svg>
