<svg width="312" height="24" viewBox="0 0 312 24" fill="none" xmlns="http://www.w3.org/2000/svg">
<path d="M136.336 17.192C138.752 17.192 140.24 15.896 140.24 14.104C140.24 12.424 138.768 11.592 137.76 11.496C138.816 11.304 140.08 10.52 140.08 9.032C140.08 7.24 138.512 6.168 136.336 6.168C134.912 6.168 133.808 6.664 132.976 7.416C132.848 7.528 132.736 7.72 132.736 7.912C132.736 8.296 133.04 8.6 133.424 8.6C133.568 8.6 133.728 8.536 133.84 8.456C134.528 7.88 135.28 7.592 136.192 7.592C137.456 7.592 138.48 8.168 138.48 9.256C138.48 10.36 137.424 10.84 136.128 10.84H135.6C135.216 10.84 134.88 11.16 134.88 11.544C134.88 11.944 135.216 12.264 135.6 12.264H136.128C137.68 12.264 138.64 12.76 138.64 13.944C138.64 15.064 137.76 15.768 136.288 15.768C135.312 15.768 134.432 15.416 133.744 14.84C133.632 14.728 133.472 14.664 133.312 14.664C132.912 14.664 132.592 14.984 132.592 15.384C132.592 15.592 132.688 15.784 132.832 15.912C133.632 16.648 134.816 17.192 136.336 17.192ZM142.871 18.904C143.575 18.28 144.039 17.432 144.039 16.504C144.039 15.656 143.511 15.176 142.919 15.176C142.375 15.176 141.943 15.608 141.943 16.152C141.943 16.68 142.311 17.064 142.807 17.064C142.903 17.064 142.999 17.048 143.047 17.032C142.983 17.432 142.679 17.896 142.295 18.28C142.215 18.36 142.167 18.456 142.167 18.584C142.167 18.84 142.343 19.016 142.583 19.016C142.695 19.016 142.791 18.984 142.871 18.904ZM145.595 11.672C145.595 14.312 146.811 17.192 149.771 17.192C152.731 17.192 153.947 14.312 153.947 11.672C153.947 9.032 152.731 6.168 149.771 6.168C146.811 6.168 145.595 9.032 145.595 11.672ZM152.315 11.672C152.315 13.752 151.659 15.768 149.771 15.768C147.883 15.768 147.227 13.752 147.227 11.672C147.227 9.592 147.883 7.592 149.771 7.592C151.659 7.592 152.315 9.592 152.315 11.672Z" fill="#757575"/>
<mask id="mask0" mask-type="alpha" maskUnits="userSpaceOnUse" x="0" y="0" width="24" height="24">
<g clip-path="url(#clip0)">
<path d="M12 17.27L18.18 21L16.54 13.97L22 9.24L14.81 8.63L12 2L9.19 8.63L2 9.24L7.46 13.97L5.82 21L12 17.27Z" fill="black"/>
</g>
</mask>
<g mask="url(#mask0)">
<rect width="24" height="24" fill="#FFD033"/>
</g>
<mask id="mask1" mask-type="alpha" maskUnits="userSpaceOnUse" x="24" y="0" width="24" height="24">
<g clip-path="url(#clip1)">
<path d="M36 17.27L42.18 21L40.54 13.97L46 9.24L38.81 8.63L36 2L33.19 8.63L26 9.24L31.46 13.97L29.82 21L36 17.27Z" fill="black"/>
</g>
</mask>
<g mask="url(#mask1)">
<rect x="24" width="24" height="24" fill="#FFD033"/>
</g>
<mask id="mask2" mask-type="alpha" maskUnits="userSpaceOnUse" x="48" y="0" width="24" height="24">
<g clip-path="url(#clip2)">
<path d="M60 17.27L66.18 21L64.54 13.97L70 9.24L62.81 8.63L60 2L57.19 8.63L50 9.24L55.46 13.97L53.82 21L60 17.27Z" fill="black"/>
</g>
</mask>
<g mask="url(#mask2)">
<rect x="48" width="24" height="24" fill="#FFD033"/>
</g>
<mask id="mask3" mask-type="alpha" maskUnits="userSpaceOnUse" x="72" y="0" width="24" height="24">
<g clip-path="url(#clip3)">
<path d="M94 9.24L86.81 8.62L84 2L81.19 8.63L74 9.24L79.46 13.97L77.82 21L84 17.27L90.18 21L88.55 13.97L94 9.24ZM84 15.4L80.24 17.67L81.24 13.39L77.92 10.51L82.3 10.13L84 6.1L85.71 10.14L90.09 10.52L86.77 13.4L87.77 17.68L84 15.4Z" fill="black"/>
</g>
</mask>
<g mask="url(#mask3)">
<rect x="72" width="24" height="24" fill="#FFD033"/>
</g>
<mask id="mask4" mask-type="alpha" maskUnits="userSpaceOnUse" x="96" y="0" width="24" height="24">
<g clip-path="url(#clip4)">
<path d="M118 9.24L110.81 8.62L108 2L105.19 8.63L98 9.24L103.46 13.97L101.82 21L108 17.27L114.18 21L112.55 13.97L118 9.24ZM108 15.4L104.24 17.67L105.24 13.39L101.92 10.51L106.3 10.13L108 6.1L109.71 10.14L114.09 10.52L110.77 13.4L111.77 17.68L108 15.4Z" fill="black"/>
</g>
</mask>
<g mask="url(#mask4)">
<rect x="96" width="24" height="24" fill="#FFD033"/>
</g>
<defs>
<clipPath id="clip0">
<rect width="24" height="24" fill="white"/>
</clipPath>
<clipPath id="clip1">
<rect width="24" height="24" fill="white" transform="translate(24)"/>
</clipPath>
<clipPath id="clip2">
<rect width="24" height="24" fill="white" transform="translate(48)"/>
</clipPath>
<clipPath id="clip3">
<rect width="24" height="24" fill="white" transform="translate(72)"/>
</clipPath>
<clipPath id="clip4">
<rect width="24" height="24" fill="white" transform="translate(96)"/>
</clipPath>
</defs>
</svg>
